<svg xmlns="http://www.w3.org/2000/svg" width="32" height="32" viewBox="0 0 32 32">
  <rect width="32" height="32" rx="6" fill="#faf9f6"/>
  <g fill="#c2410c">
    <rect x="6" y="6" width="4" height="4" rx="0.5" opacity="0.3"/>
    <rect x="12" y="6" width="4" height="4" rx="0.5" opacity="0.5"/>
    <rect x="18" y="6" width="4" height="4" rx="0.5" opacity="0.7"/>
    <rect x="24" y="6" width="4" height="4" rx="0.5" opacity="0.2"/>
    <rect x="6" y="12" width="4" height="4" rx="0.5" opacity="0.6"/>
    <rect x="12" y="12" width="4" height="4" rx="0.5" opacity="1"/>
    <rect x="18" y="12" width="4" height="4" rx="0.5" opacity="0.9"/>
    <rect x="24" y="12" width="4" height="4" rx="0.5" opacity="0.4"/>
    <rect x="6" y="18" width="4" height="4" rx="0.5" opacity="0.4"/>
    <rect x="12" y="18" width="4" height="4" rx="0.5" opacity="0.8"/>
    <rect x="18" y="18" width="4" height="4" rx="0.5" opacity="1"/>
    <rect x="24" y="18" width="4" height="4" rx="0.5" opacity="0.6"/>
    <rect x="6" y="24" width="4" height="4" rx="0.5" opacity="0.2"/>
    <rect x="12" y="24" width="4" height="4" rx="0.5" opacity="0.5"/>
    <rect x="18" y="24" width="4" height="4" rx="0.5" opacity="0.7"/>
    <rect x="24" y="24" width="4" height="4" rx="0.5" opacity="0.3"/>
  </g>
</svg>
